<svg width="34" height="34" viewBox="0 0 34 34" fill="none" xmlns="http://www.w3.org/2000/svg">
<path d="M32.3567 33H1.64333C1.47287 32.9995 1.30954 32.9315 1.18901 32.811C1.06848 32.6905 1.00053 32.5271 1 32.3567V1.64333C1.00053 1.47287 1.06848 1.30954 1.18901 1.18901C1.30954 1.06848 1.47287 1.00053 1.64333 1H32.3567C32.5271 1.00053 32.6905 1.06848 32.811 1.18901C32.9315 1.30954 32.9995 1.47287 33 1.64333V32.3567C32.9995 32.5271 32.9315 32.6905 32.811 32.811C32.6905 32.9315 32.5271 32.9995 32.3567 33Z" fill="#FCEA2B"/>
<path d="M32.3567 33H1.64333C1.47287 32.9995 1.30954 32.9315 1.18901 32.811C1.06848 32.6905 1.00053 32.5271 1 32.3567V1.64333C1.00053 1.47287 1.06848 1.30954 1.18901 1.18901C1.30954 1.06848 1.47287 1.00053 1.64333 1H32.3567C32.5271 1.00053 32.6905 1.06848 32.811 1.18901C32.9315 1.30954 32.9995 1.47287 33 1.64333V32.3567C32.9995 32.5271 32.9315 32.6905 32.811 32.811C32.6905 32.9315 32.5271 32.9995 32.3567 33Z" stroke="black" stroke-width="1.33333" stroke-linejoin="round"/>
<path d="M28.88 20.5599C28.576 19.3752 27.2607 18.4866 25.6847 18.4866C23.8827 18.4866 22.4227 19.6486 22.4227 21.0839C22.4227 22.5179 23.8833 23.6812 25.6847 23.6812L25.618 23.6899C27.42 23.6899 28.88 24.8532 28.88 26.2872C28.88 27.7226 27.4193 28.8846 25.618 28.8846C24.042 28.8846 22.7267 27.9939 22.4227 26.8099" stroke="black" stroke-width="2.96867" stroke-miterlimit="10" stroke-linecap="round" stroke-linejoin="round"/>
<path d="M17.4934 18.4866V25.1732C17.4938 25.8912 17.286 26.5939 16.8951 27.1962C16.5042 27.7984 15.9471 28.2744 15.2912 28.5664C14.6353 28.8585 13.9088 28.954 13.1997 28.8415C12.4906 28.729 11.8293 28.4133 11.296 27.9326" stroke="black" stroke-width="2.97067" stroke-miterlimit="10" stroke-linecap="round" stroke-linejoin="round"/>
</svg>
