<svg width="32" height="32" viewBox="0 0 32 32" fill="none" xmlns="http://www.w3.org/2000/svg">
<path d="M24.4762 16.9712C24.5198 21.6712 28.5998 23.2355 28.6448 23.2555C28.6103 23.3655 27.993 25.4845 26.4955 27.6727C25.201 29.5647 23.8573 31.4497 21.741 31.4892C19.6615 31.5272 18.9928 30.2557 16.615 30.2557C14.238 30.2557 13.4953 31.4497 11.5265 31.5272C9.4835 31.6047 7.92775 29.481 6.6225 27.5962C3.9555 23.7402 1.91725 16.7 4.654 11.9477C6.0135 9.5877 8.4435 8.09345 11.0808 8.05495C13.0868 8.0167 14.9803 9.40445 16.2065 9.40445C17.432 9.40445 19.733 7.73545 22.152 7.98045C23.1648 8.0227 26.0072 8.38945 27.8325 11.0615C27.6858 11.1527 24.441 13.0417 24.4762 16.9712ZM20.568 5.4297C21.6525 4.11695 22.3825 2.28895 22.1835 0.470703C20.62 0.533453 18.7295 1.51245 17.6083 2.8247C16.6033 3.98645 15.7233 5.84645 15.9605 7.6287C17.7033 7.7637 19.4833 6.7432 20.568 5.4297Z" fill="black"/>
</svg>
