<svg width="32" height="22" viewBox="0 0 32 22" fill="none" xmlns="http://www.w3.org/2000/svg">
<g clip-path="url(#clip0_72_409)">
<path d="M3.45637 14.3295C3.45637 15.5514 3.72463 16.4895 4.07513 17.057C4.53475 17.8004 5.22013 18.1152 5.919 18.1152C6.82037 18.1152 7.645 17.8915 9.234 15.6938C10.5071 13.9323 12.0073 11.4595 13.0165 9.90938L14.7259 7.28312C15.9132 5.45925 17.2875 3.43175 18.8634 2.05737C20.1495 0.935625 21.5373 0.3125 22.9338 0.3125C25.2785 0.3125 27.5119 1.67125 29.2213 4.21962C31.0919 7.0105 32 10.5259 32 14.1536C32 16.3102 31.575 17.8949 30.8516 19.1469C30.1528 20.3576 28.7906 21.5672 26.4994 21.5672V18.1152C28.4613 18.1152 28.9509 16.3125 28.9509 14.2494C28.9509 11.3094 28.2654 8.0465 26.7554 5.71525C25.6836 4.0615 24.2949 3.05113 22.767 3.05113C21.1145 3.05113 19.7846 4.29737 18.2901 6.51988C17.4956 7.7005 16.6799 9.13937 15.7641 10.7629L14.7559 12.549C12.7305 16.14 12.2175 16.9579 11.2049 18.3078C9.42988 20.6715 7.91438 21.5672 5.919 21.5672C3.55213 21.5672 2.05525 20.5422 1.12838 18.9977C0.371625 17.7391 0 16.0878 0 14.206L3.45637 14.3295Z" fill="#0081FB"/>
<path d="M2.72525 4.46325C4.31 2.02075 6.59675 0.3125 9.21963 0.3125C10.7388 0.3125 12.2488 0.762125 13.8256 2.04963C15.5504 3.45725 17.3887 5.77525 19.6822 9.59562L20.5047 10.9665C22.4899 14.2739 23.6194 15.9753 24.2804 16.7778C25.1306 17.8081 25.726 18.1152 26.4994 18.1152C28.4613 18.1152 28.9509 16.3125 28.9509 14.2494L32 14.1536C32 16.3102 31.575 17.8949 30.8516 19.1469C30.1528 20.3576 28.7906 21.5672 26.4994 21.5672C25.075 21.5672 23.8131 21.2579 22.4176 19.9414C21.3449 18.931 20.0907 17.136 19.1259 15.5224L16.2559 10.7284C14.816 8.3225 13.495 6.52875 12.7306 5.71625C11.9084 4.84275 10.8511 3.78775 9.16413 3.78775C7.79875 3.78775 6.63913 4.746 5.66875 6.2115L2.72525 4.46325Z" fill="url(#paint0_linear_72_409)"/>
<path d="M9.164 3.78775C7.79862 3.78775 6.639 4.746 5.66862 6.2115C4.29663 8.2825 3.45637 11.3671 3.45637 14.3295C3.45637 15.5514 3.72463 16.4895 4.07513 17.057L1.12838 18.9977C0.371625 17.7391 0 16.0878 0 14.206C0 10.784 0.93925 7.2175 2.72525 4.46325C4.31 2.02075 6.59675 0.3125 9.21963 0.3125L9.164 3.78775Z" fill="url(#paint1_linear_72_409)"/>
</g>
<defs>
<linearGradient id="paint0_linear_72_409" x1="409" y1="1189.18" x2="2609.74" y2="1300.33" gradientUnits="userSpaceOnUse">
<stop stop-color="#0064E1"/>
<stop offset="0.4" stop-color="#0064E1"/>
<stop offset="0.83" stop-color="#0073EE"/>
<stop offset="1" stop-color="#0082FB"/>
</linearGradient>
<linearGradient id="paint1_linear_72_409" x1="500.764" y1="1547.11" x2="500.764" y2="734.774" gradientUnits="userSpaceOnUse">
<stop stop-color="#0082FB"/>
<stop offset="1" stop-color="#0064E0"/>
</linearGradient>
<clipPath id="clip0_72_409">
<rect width="32" height="21.375" fill="white" transform="translate(0 0.3125)"/>
</clipPath>
</defs>
</svg>
