<svg width="32" height="32" viewBox="0 0 32 32" fill="none" xmlns="http://www.w3.org/2000/svg">
<path d="M28.3884 9.73551C28.2424 9.18532 27.9543 8.68316 27.553 8.27935C27.1518 7.87554 26.6515 7.58424 26.1022 7.43462C24.0858 6.89062 16 6.89062 16 6.89062C16 6.89062 7.91423 6.89062 5.89778 7.43462C5.34853 7.58424 4.84823 7.87554 4.44699 8.27935C4.04575 8.68316 3.75765 9.18532 3.61156 9.73551C3.07111 11.7648 3.07111 15.9995 3.07111 15.9995C3.07111 15.9995 3.07111 20.2342 3.61156 22.264C3.75765 22.8142 4.04575 23.3163 4.44699 23.7201C4.84823 24.1239 5.34853 24.4152 5.89778 24.5648C7.91423 25.1084 16 25.1084 16 25.1084C16 25.1084 24.0858 25.1084 26.1022 24.5648C26.6515 24.4152 27.1518 24.1239 27.553 23.7201C27.9543 23.3163 28.2424 22.8142 28.3884 22.264C28.9289 20.2342 28.9289 15.9995 28.9289 15.9995C28.9289 15.9995 28.9289 11.7648 28.3884 9.73551Z" fill="#EA5A47"/>
<path d="M13.3556 19.8442L20.1138 15.9997L13.3556 12.1553V19.8442Z" fill="white"/>
<path d="M28.3884 9.73551C28.2424 9.18532 27.9543 8.68316 27.553 8.27935C27.1518 7.87554 26.6515 7.58424 26.1022 7.43462C24.0858 6.89062 16 6.89062 16 6.89062C16 6.89062 7.91423 6.89062 5.89778 7.43462C5.34853 7.58424 4.84823 7.87554 4.44699 8.27935C4.04575 8.68316 3.75765 9.18532 3.61156 9.73551C3.07111 11.7648 3.07111 15.9995 3.07111 15.9995C3.07111 15.9995 3.07111 20.2342 3.61156 22.264C3.75765 22.8142 4.04575 23.3163 4.44699 23.7201C4.84823 24.1239 5.34853 24.4152 5.89778 24.5648C7.91423 25.1084 16 25.1084 16 25.1084C16 25.1084 24.0858 25.1084 26.1022 24.5648C26.6515 24.4152 27.1518 24.1239 27.553 23.7201C27.9543 23.3163 28.2424 22.8142 28.3884 22.264C28.9289 20.2342 28.9289 15.9995 28.9289 15.9995C28.9289 15.9995 28.9289 11.7648 28.3884 9.73551Z" stroke="black" stroke-width="0.888889" stroke-miterlimit="10"/>
<path d="M13.3557 19.8442L20.1139 15.9997L13.3557 12.1553V19.8442Z" stroke="black" stroke-width="0.888889" stroke-miterlimit="10" stroke-linecap="round" stroke-linejoin="round"/>
</svg>
