<svg width="18" height="23" viewBox="0 0 18 23" fill="none" xmlns="http://www.w3.org/2000/svg">
<path d="M0.00103158 2.35143C0.00103158 1.04918 0.960014 0.00102452 2.39849 0.00102452C3.77303 0.00102452 4.79594 0.890368 4.79594 2.35143V9.21311L12.6606 0.889344C13.0133 0.508197 13.6196 0 14.5157 0C15.7304 0 16.8822 0.921106 16.8822 2.28689C16.8822 3.1127 16.3708 3.77971 15.3148 4.82787L9.2712 10.7367L16.6564 18.3934C17.4236 19.1557 18 19.8545 18 20.8084C18 22.3012 16.8183 23 15.5066 23C14.5807 23 13.9723 22.4611 13.0762 21.5072L4.79491 12.6117V20.7121C4.79491 21.9518 3.83593 22.999 2.39746 22.999C1.02291 22.999 0 22.1107 0 20.7121V2.35143H0.00103158Z" fill="white"/>
</svg>
